<svg xmlns="http://www.w3.org/2000/svg" viewBox="0 0 120 140" fill="none" aria-hidden="true"><path d="M24 36 C30 24 42 20 60 20 C78 20 90 24 96 36" stroke="currentColor" stroke-width="2" stroke-linecap="round"/><path d="M28 40 C34 34 44 30 60 30 C76 30 86 34 92 40 L96 58 C98 74 92 96 80 114 L70 126 C66 130 60 132 60 132 C60 132 54 130 50 126 L40 114 C28 96 22 74 24 58 Z" stroke="currentColor" stroke-width="2" stroke-linejoin="round"/><path d="M60 30 V122" stroke="currentColor" stroke-width="2" stroke-linecap="round"/><path d="M60 48 C46 52 36 62 30 76" stroke="currentColor" stroke-width="2" stroke-linecap="round"/><path d="M60 48 C74 52 84 62 90 76" stroke="currentColor" stroke-width="2" stroke-linecap="round"/><path d="M60 72 C48 78 40 90 36 104" stroke="currentColor" stroke-width="2" stroke-linecap="round"/><path d="M60 72 C72 78 80 90 84 104" stroke="currentColor" stroke-width="2" stroke-linecap="round"/></svg>
