<svg xmlns="http://www.w3.org/2000/svg" viewBox="0 0 120 140" fill="none" aria-hidden="true"><path d="M38 34 C42 18 52 12 60 12 C68 12 78 18 82 34 L88 56 C90 70 86 90 78 108 L70 126 C66 132 60 134 60 134 C60 134 54 132 50 126 L42 108 C34 90 30 70 32 56 Z" stroke="currentColor" stroke-width="2" stroke-linejoin="round"/><path d="M60 40 V118" stroke="currentColor" stroke-width="1.7" stroke-linecap="round" opacity="0.85"/><path d="M42 48 C48 40 54 38 60 40 C56 52 50 62 42 70 C38 62 38 54 42 48 Z" stroke="currentColor" stroke-width="2" stroke-linejoin="round"/><path d="M78 48 C72 40 66 38 60 40 C64 52 70 62 78 70 C82 62 82 54 78 48 Z" stroke="currentColor" stroke-width="2" stroke-linejoin="round"/></svg>
