<svg xmlns="http://www.w3.org/2000/svg" viewBox="0 0 120 140" fill="none" aria-hidden="true"><path d="M30 24 H90 C94 24 96 28 96 32 V46 C96 52 92 56 86 58 L74 62 V128 H46 V62 L34 58 C28 56 24 52 24 46 V32 C24 28 26 24 30 24 Z" stroke="currentColor" stroke-width="2" stroke-linejoin="round"/><path d="M60 58 V128" stroke="currentColor" stroke-width="2" stroke-linecap="round"/><path d="M40 84 C46 94 54 94 60 84" stroke="currentColor" stroke-width="1.8" stroke-linecap="round"/><path d="M60 84 C66 94 74 94 80 84" stroke="currentColor" stroke-width="1.8" stroke-linecap="round"/><path d="M42 108 H54" stroke="currentColor" stroke-width="1.6" stroke-linecap="round" opacity="0.75"/><path d="M66 108 H78" stroke="currentColor" stroke-width="1.6" stroke-linecap="round" opacity="0.75"/></svg>
