<svg xmlns="http://www.w3.org/2000/svg" viewBox="0 0 120 140" fill="none" aria-hidden="true"><path d="M44 20 C58 14 80 22 86 42 L94 78 C96 98 88 118 72 128 C62 134 50 130 44 120 L32 92 C26 76 26 56 32 42 C36 30 40 22 44 20 Z" stroke="currentColor" stroke-width="2" stroke-linejoin="round"/><path d="M50 40 C42 56 42 78 50 98 C54 108 60 114 66 116" stroke="currentColor" stroke-width="2" stroke-linecap="round"/><path d="M70 38 C78 54 80 78 72 100 C68 110 62 116 56 118" stroke="currentColor" stroke-width="2" stroke-linecap="round"/><path d="M60 34 V118" stroke="currentColor" stroke-width="1.7" stroke-linecap="round"/></svg>
