<svg xmlns="http://www.w3.org/2000/svg" viewBox="0 0 200 200" fill="none" aria-hidden="true">
  <defs>
    <radialGradient id="orbCore" cx="50%" cy="42%" r="55%">
      <stop offset="0%" stop-color="#B8FBFF" stop-opacity="0.95"/>
      <stop offset="35%" stop-color="#00D9FF" stop-opacity="0.55"/>
      <stop offset="70%" stop-color="#0891B2" stop-opacity="0.18"/>
      <stop offset="100%" stop-color="#0B1220" stop-opacity="0"/>
    </radialGradient>
    <radialGradient id="orbHalo" cx="50%" cy="50%" r="50%">
      <stop offset="0%" stop-color="#00D9FF" stop-opacity="0.35"/>
      <stop offset="60%" stop-color="#00D9FF" stop-opacity="0.08"/>
      <stop offset="100%" stop-color="#00D9FF" stop-opacity="0"/>
    </radialGradient>
    <linearGradient id="orbRing" x1="0" y1="0" x2="1" y2="1">
      <stop offset="0%" stop-color="#5EEFFF"/>
      <stop offset="50%" stop-color="#00D9FF"/>
      <stop offset="100%" stop-color="#067A8A"/>
    </linearGradient>
    <filter id="orbGlow" x="-40%" y="-40%" width="180%" height="180%">
      <feGaussianBlur stdDeviation="2.4" result="b"/>
      <feMerge>
        <feMergeNode in="b"/>
        <feMergeNode in="SourceGraphic"/>
      </feMerge>
    </filter>
  </defs>

  <circle cx="100" cy="100" r="92" fill="url(#orbHalo)"/>
  <circle cx="100" cy="100" r="70" fill="url(#orbCore)"/>

  <g stroke="url(#orbRing)" stroke-width="1.1" opacity="0.55">
    <circle cx="100" cy="100" r="78"/>
    <circle cx="100" cy="100" r="58"/>
    <circle cx="100" cy="100" r="38"/>
    <circle cx="100" cy="100" r="18"/>
  </g>

  <g stroke="#5EEFFF" stroke-opacity="0.35" stroke-width="1">
    <path d="M100 16v168M16 100h168"/>
    <path d="M36 36l128 128M164 36L36 164"/>
  </g>

  <g filter="url(#orbGlow)" stroke="#B8FBFF" stroke-width="1.4" opacity="0.85">
    <ellipse cx="100" cy="100" rx="74" ry="28" transform="rotate(-18 100 100)"/>
    <ellipse cx="100" cy="100" rx="62" ry="22" transform="rotate(42 100 100)"/>
    <ellipse cx="100" cy="100" rx="48" ry="16" transform="rotate(78 100 100)"/>
  </g>

  <circle cx="100" cy="100" r="7" fill="#E6FFFF" filter="url(#orbGlow)"/>
  <circle cx="148" cy="62" r="4.5" fill="#5EEFFF" filter="url(#orbGlow)"/>
  <circle cx="58" cy="138" r="3.2" fill="#00D9FF" opacity="0.8"/>
  <circle cx="136" cy="132" r="2.4" fill="#00D9FF" opacity="0.65"/>
  <path d="M100 100 L148 62" stroke="#5EEFFF" stroke-width="1.8" stroke-linecap="round" opacity="0.9" filter="url(#orbGlow)"/>
</svg>
