<svg xmlns="http://www.w3.org/2000/svg" viewBox="0 0 320 320" fill="none" aria-hidden="true">
  <defs>
    <linearGradient id="dbPlateLite" x1="40" y1="40" x2="120" y2="160" gradientUnits="userSpaceOnUse">
      <stop offset="0%" stop-color="#7CFFC4"/>
      <stop offset="35%" stop-color="#1AE88F"/>
      <stop offset="70%" stop-color="#00B86B"/>
      <stop offset="100%" stop-color="#046B3E"/>
    </linearGradient>
    <linearGradient id="dbPlateDeep" x1="200" y1="60" x2="280" y2="180" gradientUnits="userSpaceOnUse">
      <stop offset="0%" stop-color="#34F5A5"/>
      <stop offset="40%" stop-color="#00C97B"/>
      <stop offset="100%" stop-color="#035C35"/>
    </linearGradient>
    <linearGradient id="dbBarMetal" x1="0" y1="0" x2="0" y2="1">
      <stop offset="0%" stop-color="#E5E7EB"/>
      <stop offset="45%" stop-color="#9CA3AF"/>
      <stop offset="100%" stop-color="#4B5563"/>
    </linearGradient>
    <linearGradient id="dbCollar" x1="0" y1="0" x2="1" y2="1">
      <stop offset="0%" stop-color="#F3F4F6"/>
      <stop offset="55%" stop-color="#9CA3AF"/>
      <stop offset="100%" stop-color="#374151"/>
    </linearGradient>
    <radialGradient id="dbFloorGlow" cx="50%" cy="50%" r="50%">
      <stop offset="0%" stop-color="#00E58F" stop-opacity="0.38"/>
      <stop offset="55%" stop-color="#00E58F" stop-opacity="0.12"/>
      <stop offset="100%" stop-color="#00E58F" stop-opacity="0"/>
    </radialGradient>
    <filter id="dbSoftGlow" x="-35%" y="-35%" width="170%" height="170%">
      <feDropShadow dx="0" dy="14" stdDeviation="16" flood-color="#00E58F" flood-opacity="0.42"/>
    </filter>
    <filter id="dbInnerSoft" x="-20%" y="-20%" width="140%" height="140%">
      <feDropShadow dx="0" dy="6" stdDeviation="8" flood-color="#00E58F" flood-opacity="0.28"/>
    </filter>
  </defs>

  <!-- Soft green floor glow (true alpha) -->
  <ellipse cx="160" cy="268" rx="118" ry="28" fill="url(#dbFloorGlow)"/>

  <!-- Back dumbbell -->
  <g filter="url(#dbSoftGlow)" transform="translate(160 148) rotate(-28)">
    <rect x="-58" y="-7" width="116" height="14" rx="7" fill="url(#dbBarMetal)"/>
    <!-- left plates -->
    <rect x="-118" y="-28" width="28" height="56" rx="9" fill="url(#dbPlateDeep)"/>
    <rect x="-96" y="-22" width="20" height="44" rx="7" fill="url(#dbPlateLite)"/>
    <rect x="-78" y="-14" width="12" height="28" rx="4" fill="url(#dbCollar)"/>
    <!-- right plates -->
    <rect x="66" y="-14" width="12" height="28" rx="4" fill="url(#dbCollar)"/>
    <rect x="76" y="-22" width="20" height="44" rx="7" fill="url(#dbPlateLite)"/>
    <rect x="90" y="-28" width="28" height="56" rx="9" fill="url(#dbPlateDeep)"/>
    <!-- plate highlights -->
    <ellipse cx="-104" cy="-14" rx="8" ry="3.5" fill="#B8FFE0" opacity="0.45"/>
    <ellipse cx="104" cy="-14" rx="8" ry="3.5" fill="#B8FFE0" opacity="0.4"/>
  </g>

  <!-- Front dumbbell -->
  <g filter="url(#dbInnerSoft)" transform="translate(160 168) rotate(22)">
    <rect x="-62" y="-8" width="124" height="16" rx="8" fill="url(#dbBarMetal)"/>
    <!-- knurl suggestion -->
    <rect x="-28" y="-5" width="56" height="10" rx="4" fill="#6B7280" opacity="0.55"/>
    <!-- left plates -->
    <rect x="-128" y="-32" width="32" height="64" rx="10" fill="url(#dbPlateLite)"/>
    <rect x="-104" y="-25" width="22" height="50" rx="8" fill="url(#dbPlateDeep)"/>
    <rect x="-84" y="-15" width="14" height="30" rx="4" fill="url(#dbCollar)"/>
    <!-- right plates -->
    <rect x="70" y="-15" width="14" height="30" rx="4" fill="url(#dbCollar)"/>
    <rect x="82" y="-25" width="22" height="50" rx="8" fill="url(#dbPlateDeep)"/>
    <rect x="96" y="-32" width="32" height="64" rx="10" fill="url(#dbPlateLite)"/>
    <!-- plate highlights -->
    <ellipse cx="-112" cy="-16" rx="10" ry="4" fill="#D4FFE9" opacity="0.5"/>
    <ellipse cx="112" cy="-16" rx="10" ry="4" fill="#D4FFE9" opacity="0.45"/>
  </g>
</svg>
